<svg xmlns="http://www.w3.org/2000/svg" viewBox="0 0 1024 1024" role="img" aria-label="Baratie">
	<defs>
		<linearGradient id="tile" x1="146" x2="878" y1="96" y2="928" gradientUnits="userSpaceOnUse">
			<stop stop-color="#ffb15c" />
			<stop offset="0.58" stop-color="#f97316" />
			<stop offset="1" stop-color="#c2410c" />
		</linearGradient>
		<linearGradient id="hat" x1="214" x2="823" y1="190" y2="604" gradientUnits="userSpaceOnUse">
			<stop stop-color="#fffdf4" />
			<stop offset="1" stop-color="#ffedd5" />
		</linearGradient>
		<linearGradient id="bowl" x1="267" x2="774" y1="620" y2="843" gradientUnits="userSpaceOnUse">
			<stop stop-color="#26453d" />
			<stop offset="1" stop-color="#132e2a" />
		</linearGradient>
		<filter id="shadow" x="-20%" y="-20%" width="140%" height="150%" color-interpolation-filters="sRGB">
			<feDropShadow dx="0" dy="26" stdDeviation="28" flood-color="#7c2d12" flood-opacity="0.24" />
		</filter>
	</defs>
	<rect width="1024" height="1024" fill="#fff7ed" />
	<rect x="86" y="86" width="852" height="852" rx="196" fill="url(#tile)" />
	<path
		d="M184 498c19-152 142-277 303-303 175-28 340 62 413 211 24 49 38 103 41 158-56-23-116-36-179-36-220 0-411 150-464 363-95-42-158-130-158-230 0-58 16-113 44-163Z"
		fill="#fff7ed"
		opacity="0.14"
	/>
	<g filter="url(#shadow)">
		<path
			d="M291 614h442v68c0 93-75 168-168 168H459c-93 0-168-75-168-168v-68Z"
			fill="url(#bowl)"
		/>
		<path
			d="M247 591h530c27 0 49 22 49 49s-22 49-49 49H247c-27 0-49-22-49-49s22-49 49-49Z"
			fill="#fef3c7"
		/>
		<path
			d="M318 584c-79-19-138-90-138-174 0-99 80-179 179-179 30 0 59 7 84 21 43-72 122-120 212-120 129 0 235 99 247 225 65 13 114 70 114 139 0 78-64 142-142 142H318v-54Z"
			fill="url(#hat)"
		/>
		<path
			d="M318 584c-78-20-136-91-136-174 0-98 79-177 177-177 30 0 58 7 83 21"
			fill="none"
			stroke="#ffffff"
			stroke-linecap="round"
			stroke-width="26"
			opacity="0.55"
		/>
		<path
			d="M407 606v-70m105 70v-104m105 104v-78"
			fill="none"
			stroke="#fdba74"
			stroke-linecap="round"
			stroke-width="34"
		/>
		<path
			d="M392 759h240"
			fill="none"
			stroke="#fff7ed"
			stroke-linecap="round"
			stroke-width="24"
			opacity="0.26"
		/>
	</g>
</svg>
